<mxfile host="app.diagrams.net" modified="2022-06-11T21:47:41.912Z" agent="5.0 (Windows NT 10.0; Win64; x64) AppleWebKit/537.36 (KHTML, like Gecko) Chrome/102.0.5005.63 Safari/537.36 Edg/102.0.1245.33" etag="Ofz7YJq31vkPQ7VJGBB1" version="18.1.3" type="github">
  <diagram id="WekflEKTtIWYyWRdUzIb" name="Page-1">
    <mxGraphModel dx="3268" dy="2042" grid="1" gridSize="10" guides="1" tooltips="1" connect="1" arrows="1" fold="1" page="1" pageScale="1" pageWidth="850" pageHeight="1100" math="0" shadow="0">
      <root>
        <mxCell id="0" />
        <mxCell id="1" parent="0" />
        <mxCell id="Y2F9k9ScdIRFFcySQNbA-226" value="" style="shape=ext;double=1;rounded=0;whiteSpace=wrap;html=1;dashed=1;labelBackgroundColor=default;labelBorderColor=none;sketch=0;fontFamily=Verdana;fontSize=24;strokeWidth=2;" vertex="1" parent="1">
          <mxGeometry x="-98.84" y="-475.25" width="2588.84" height="1325.25" as="geometry" />
        </mxCell>
        <mxCell id="Y2F9k9ScdIRFFcySQNbA-223" value="CUSTOMERS&#39; ENVIRONMENTS" style="rounded=1;whiteSpace=wrap;html=1;labelBackgroundColor=default;labelBorderColor=none;sketch=0;fontFamily=Verdana;fontSize=24;strokeWidth=2;dashed=1;labelPosition=center;verticalLabelPosition=top;align=center;verticalAlign=bottom;" vertex="1" parent="1">
          <mxGeometry x="1410" y="-140" width="830" height="700" as="geometry" />
        </mxCell>
        <mxCell id="Y2F9k9ScdIRFFcySQNbA-222" value="PRODIGY ENVIRONMENT" style="rounded=1;whiteSpace=wrap;html=1;labelBackgroundColor=default;labelBorderColor=none;sketch=0;fontFamily=Verdana;fontSize=24;strokeWidth=2;dashed=1;labelPosition=center;verticalLabelPosition=top;align=center;verticalAlign=bottom;" vertex="1" parent="1">
          <mxGeometry x="30" y="-140" width="1190" height="880" as="geometry" />
        </mxCell>
        <mxCell id="Y2F9k9ScdIRFFcySQNbA-219" value="MONITORING HUB&amp;nbsp;" style="rounded=1;whiteSpace=wrap;html=1;labelBackgroundColor=default;labelBorderColor=none;sketch=0;fontFamily=Verdana;fontSize=24;strokeWidth=0;fillColor=#E8F9FF;strokeColor=#10739e;labelPosition=center;verticalLabelPosition=top;align=center;verticalAlign=bottom;fontStyle=1" vertex="1" parent="1">
          <mxGeometry x="730" y="-60" width="440" height="680" as="geometry" />
        </mxCell>
        <mxCell id="Y2F9k9ScdIRFFcySQNbA-218" value="&amp;nbsp;DEVELOPMENT HUB&amp;nbsp;" style="rounded=1;whiteSpace=wrap;html=1;labelBackgroundColor=default;labelBorderColor=none;sketch=0;fontFamily=Verdana;fontSize=24;fontColor=default;strokeColor=default;strokeWidth=0;fillColor=#E8F9FF;gradientColor=none;labelPosition=center;verticalLabelPosition=top;align=center;verticalAlign=bottom;fontStyle=1" vertex="1" parent="1">
          <mxGeometry x="60" y="-60" width="647.5" height="760" as="geometry" />
        </mxCell>
        <mxCell id="Y2F9k9ScdIRFFcySQNbA-152" value="" style="rounded=0;whiteSpace=wrap;html=1;labelPosition=center;verticalLabelPosition=top;align=center;verticalAlign=bottom;fillColor=#dae8fc;strokeColor=#6c8ebf;fontStyle=1" vertex="1" parent="1">
          <mxGeometry x="1495" y="-70" width="520" height="260" as="geometry" />
        </mxCell>
        <mxCell id="Y2F9k9ScdIRFFcySQNbA-159" value="" style="rounded=0;whiteSpace=wrap;html=1;fontFamily=Verdana;fillColor=#bac8d3;strokeColor=none;" vertex="1" parent="1">
          <mxGeometry x="1515" y="-50" width="480" height="220" as="geometry" />
        </mxCell>
        <mxCell id="Y2F9k9ScdIRFFcySQNbA-145" style="edgeStyle=orthogonalEdgeStyle;rounded=0;orthogonalLoop=1;jettySize=auto;html=1;entryX=1;entryY=0.5;entryDx=0;entryDy=0;labelBorderColor=default;fontFamily=Verdana;fontSize=13;fontColor=default;" edge="1" parent="1" source="Y2F9k9ScdIRFFcySQNbA-136" target="Y2F9k9ScdIRFFcySQNbA-93">
          <mxGeometry relative="1" as="geometry">
            <Array as="points">
              <mxPoint x="720" y="640" />
            </Array>
          </mxGeometry>
        </mxCell>
        <mxCell id="Y2F9k9ScdIRFFcySQNbA-146" value="&amp;nbsp;Content creation request&amp;nbsp;" style="edgeLabel;html=1;align=center;verticalAlign=middle;resizable=0;points=[];fontSize=15;fontFamily=Verdana;fontColor=default;labelBorderColor=default;" vertex="1" connectable="0" parent="Y2F9k9ScdIRFFcySQNbA-145">
          <mxGeometry x="0.7222" y="2" relative="1" as="geometry">
            <mxPoint x="-1" as="offset" />
          </mxGeometry>
        </mxCell>
        <mxCell id="Y2F9k9ScdIRFFcySQNbA-147" style="edgeStyle=orthogonalEdgeStyle;rounded=0;orthogonalLoop=1;jettySize=auto;html=1;entryX=0.025;entryY=0.702;entryDx=0;entryDy=0;entryPerimeter=0;labelBorderColor=default;fontFamily=Verdana;fontSize=15;fontColor=default;" edge="1" parent="1" source="Y2F9k9ScdIRFFcySQNbA-72" target="Y2F9k9ScdIRFFcySQNbA-126">
          <mxGeometry relative="1" as="geometry" />
        </mxCell>
        <mxCell id="Y2F9k9ScdIRFFcySQNbA-187" value="Querying customer data" style="edgeLabel;html=1;align=center;verticalAlign=middle;resizable=0;points=[];fontSize=15;fontFamily=Verdana;fontColor=default;labelBorderColor=default;fontStyle=1" vertex="1" connectable="0" parent="Y2F9k9ScdIRFFcySQNbA-147">
          <mxGeometry x="-0.3388" y="-1" relative="1" as="geometry">
            <mxPoint x="45" y="-3" as="offset" />
          </mxGeometry>
        </mxCell>
        <mxCell id="Y2F9k9ScdIRFFcySQNbA-72" value="" style="rounded=0;whiteSpace=wrap;html=1;labelPosition=center;verticalLabelPosition=top;align=center;verticalAlign=bottom;fillColor=#dae8fc;strokeColor=#6c8ebf;fontStyle=1" vertex="1" parent="1">
          <mxGeometry x="776.5" y="74.22" width="253.5" height="255.78" as="geometry" />
        </mxCell>
        <mxCell id="Y2F9k9ScdIRFFcySQNbA-111" value="" style="rounded=0;whiteSpace=wrap;html=1;fontFamily=Verdana;fillColor=#f5f5f5;fontColor=#333333;strokeColor=none;" vertex="1" parent="1">
          <mxGeometry x="802" y="150" width="208" height="170" as="geometry" />
        </mxCell>
        <mxCell id="Y2F9k9ScdIRFFcySQNbA-93" value="" style="rounded=0;whiteSpace=wrap;html=1;labelBackgroundColor=none;labelBorderColor=none;sketch=0;fontFamily=Verdana;fontSize=15;strokeWidth=0;" vertex="1" parent="1">
          <mxGeometry x="316" y="590" width="94" height="100" as="geometry" />
        </mxCell>
        <mxCell id="Y2F9k9ScdIRFFcySQNbA-2" value="" style="rounded=0;whiteSpace=wrap;html=1;labelPosition=center;verticalLabelPosition=top;align=center;verticalAlign=bottom;fillColor=#dae8fc;strokeColor=#6c8ebf;fontStyle=1" vertex="1" parent="1">
          <mxGeometry x="115" y="73.22" width="525" height="366.78" as="geometry" />
        </mxCell>
        <mxCell id="Y2F9k9ScdIRFFcySQNbA-6" value="prodigy-v1-dev" style="aspect=fixed;html=1;points=[];align=left;image;fontSize=15;image=img/lib/azure2/security/Key_Vaults.svg;fontFamily=Verdana;fillColor=#D1E1FC;labelPosition=right;verticalLabelPosition=middle;verticalAlign=middle;fontStyle=1;labelBackgroundColor=none;" vertex="1" parent="1">
          <mxGeometry x="87" y="33" width="57" height="57" as="geometry" />
        </mxCell>
        <mxCell id="Y2F9k9ScdIRFFcySQNbA-7" value="" style="rounded=0;whiteSpace=wrap;html=1;fontFamily=Verdana;fillColor=#f5f5f5;fontColor=#333333;strokeColor=none;" vertex="1" parent="1">
          <mxGeometry x="139" y="150" width="471" height="260" as="geometry" />
        </mxCell>
        <mxCell id="Y2F9k9ScdIRFFcySQNbA-8" value="rg-prodigy-sentinel-test" style="aspect=fixed;html=1;points=[];align=left;image;fontSize=12;image=img/lib/azure2/general/Resource_Groups.svg;fontFamily=Verdana;fillColor=#D1E1FC;labelPosition=right;verticalLabelPosition=middle;verticalAlign=middle;sketch=0;labelBorderColor=none;labelBackgroundColor=none;fontStyle=1" vertex="1" parent="1">
          <mxGeometry x="120" y="129" width="28" height="26.35" as="geometry" />
        </mxCell>
        <mxCell id="Y2F9k9ScdIRFFcySQNbA-51" value="" style="edgeStyle=orthogonalEdgeStyle;rounded=0;orthogonalLoop=1;jettySize=auto;html=1;fontFamily=Verdana;fontSize=15;" edge="1" parent="1" source="Y2F9k9ScdIRFFcySQNbA-20" target="Y2F9k9ScdIRFFcySQNbA-50">
          <mxGeometry relative="1" as="geometry" />
        </mxCell>
        <mxCell id="Y2F9k9ScdIRFFcySQNbA-20" value="&lt;b&gt;&lt;font style=&quot;font-size: 14px;&quot;&gt;Development and testing&lt;/font&gt;&lt;/b&gt;" style="rounded=0;whiteSpace=wrap;html=1;labelBackgroundColor=none;labelBorderColor=none;sketch=0;fontFamily=Verdana;fontSize=11;fillColor=default;" vertex="1" parent="1">
          <mxGeometry x="142" y="85" width="214" height="35" as="geometry" />
        </mxCell>
        <mxCell id="Y2F9k9ScdIRFFcySQNbA-47" style="edgeStyle=orthogonalEdgeStyle;rounded=0;orthogonalLoop=1;jettySize=auto;html=1;entryX=0;entryY=0.5;entryDx=0;entryDy=0;fontFamily=Verdana;fontSize=13;" edge="1" parent="1" source="Y2F9k9ScdIRFFcySQNbA-38" target="Y2F9k9ScdIRFFcySQNbA-39">
          <mxGeometry relative="1" as="geometry" />
        </mxCell>
        <mxCell id="Y2F9k9ScdIRFFcySQNbA-48" value="&lt;font style=&quot;font-size: 14px;&quot;&gt;&amp;nbsp;Export/Import&amp;nbsp;&lt;/font&gt;" style="edgeLabel;html=1;align=center;verticalAlign=middle;resizable=0;points=[];fontSize=15;fontFamily=Verdana;labelBorderColor=default;" vertex="1" connectable="0" parent="Y2F9k9ScdIRFFcySQNbA-47">
          <mxGeometry x="0.2463" y="3" relative="1" as="geometry">
            <mxPoint x="1" as="offset" />
          </mxGeometry>
        </mxCell>
        <mxCell id="Y2F9k9ScdIRFFcySQNbA-38" value="" style="rounded=0;whiteSpace=wrap;html=1;labelBackgroundColor=none;labelBorderColor=none;sketch=0;fontFamily=Verdana;fontSize=11;fillColor=#bac8d3;strokeColor=none;" vertex="1" parent="1">
          <mxGeometry x="156" y="180" width="154" height="220" as="geometry" />
        </mxCell>
        <mxCell id="Y2F9k9ScdIRFFcySQNbA-37" value="log-prodigy-sentinel-test" style="aspect=fixed;html=1;points=[];align=left;image;fontSize=9;image=img/lib/azure2/security/Azure_Sentinel.svg;labelBackgroundColor=none;labelBorderColor=none;sketch=0;fontFamily=Verdana;fillColor=default;labelPosition=right;verticalLabelPosition=middle;verticalAlign=middle;fontStyle=1" vertex="1" parent="1">
          <mxGeometry x="150" y="162.43" width="21" height="25.5" as="geometry" />
        </mxCell>
        <mxCell id="Y2F9k9ScdIRFFcySQNbA-39" value="" style="rounded=0;whiteSpace=wrap;html=1;labelBackgroundColor=none;labelBorderColor=none;sketch=0;fontFamily=Verdana;fontSize=11;fillColor=#bac8d3;strokeColor=none;" vertex="1" parent="1">
          <mxGeometry x="438" y="179.5" width="142" height="55.5" as="geometry" />
        </mxCell>
        <mxCell id="Y2F9k9ScdIRFFcySQNbA-40" value="log-prodigy-sentinel-accp" style="aspect=fixed;html=1;points=[];align=left;image;fontSize=9;image=img/lib/azure2/security/Azure_Sentinel.svg;labelBackgroundColor=none;labelBorderColor=none;sketch=0;fontFamily=Verdana;fillColor=default;labelPosition=right;verticalLabelPosition=middle;verticalAlign=middle;fontStyle=1" vertex="1" parent="1">
          <mxGeometry x="425" y="160" width="23" height="27.93" as="geometry" />
        </mxCell>
        <mxCell id="Y2F9k9ScdIRFFcySQNbA-41" value="Analytic rules" style="rounded=0;whiteSpace=wrap;html=1;labelBackgroundColor=none;labelBorderColor=none;sketch=0;fontFamily=Verdana;fontSize=11;fillColor=default;" vertex="1" parent="1">
          <mxGeometry x="168" y="189" width="130" height="31" as="geometry" />
        </mxCell>
        <mxCell id="Y2F9k9ScdIRFFcySQNbA-42" value="Hunting queries" style="rounded=0;whiteSpace=wrap;html=1;labelBackgroundColor=none;labelBorderColor=none;sketch=0;fontFamily=Verdana;fontSize=11;fillColor=default;" vertex="1" parent="1">
          <mxGeometry x="168" y="230" width="130" height="31" as="geometry" />
        </mxCell>
        <mxCell id="Y2F9k9ScdIRFFcySQNbA-43" value="Parsers" style="rounded=0;whiteSpace=wrap;html=1;labelBackgroundColor=none;labelBorderColor=none;sketch=0;fontFamily=Verdana;fontSize=11;fillColor=default;" vertex="1" parent="1">
          <mxGeometry x="168" y="271" width="130" height="31" as="geometry" />
        </mxCell>
        <mxCell id="Y2F9k9ScdIRFFcySQNbA-44" value="Playbooks" style="rounded=0;whiteSpace=wrap;html=1;labelBackgroundColor=none;labelBorderColor=none;sketch=0;fontFamily=Verdana;fontSize=11;fillColor=default;" vertex="1" parent="1">
          <mxGeometry x="168" y="313" width="130" height="31" as="geometry" />
        </mxCell>
        <mxCell id="Y2F9k9ScdIRFFcySQNbA-45" value="Connectors" style="rounded=0;whiteSpace=wrap;html=1;labelBackgroundColor=none;labelBorderColor=none;sketch=0;fontFamily=Verdana;fontSize=11;fillColor=default;" vertex="1" parent="1">
          <mxGeometry x="168" y="354" width="130" height="31" as="geometry" />
        </mxCell>
        <mxCell id="Y2F9k9ScdIRFFcySQNbA-59" value="&amp;nbsp;weekly cadence&amp;nbsp;" style="edgeStyle=orthogonalEdgeStyle;rounded=0;orthogonalLoop=1;jettySize=auto;html=1;fontFamily=Verdana;fontSize=14;entryX=0.505;entryY=0.016;entryDx=0;entryDy=0;entryPerimeter=0;labelBorderColor=default;" edge="1" parent="1" source="Y2F9k9ScdIRFFcySQNbA-49" target="Y2F9k9ScdIRFFcySQNbA-60">
          <mxGeometry relative="1" as="geometry">
            <mxPoint x="508.99999999999955" y="302.75" as="targetPoint" />
          </mxGeometry>
        </mxCell>
        <mxCell id="Y2F9k9ScdIRFFcySQNbA-49" value="SIEM/SOAR Content" style="rounded=0;whiteSpace=wrap;html=1;labelBackgroundColor=none;labelBorderColor=none;sketch=0;fontFamily=Verdana;fontSize=11;fillColor=default;" vertex="1" parent="1">
          <mxGeometry x="444" y="191.75" width="130" height="31" as="geometry" />
        </mxCell>
        <mxCell id="Y2F9k9ScdIRFFcySQNbA-97" value="" style="edgeStyle=orthogonalEdgeStyle;rounded=0;orthogonalLoop=1;jettySize=auto;html=1;labelBorderColor=default;fontFamily=Verdana;fontSize=15;fontColor=default;" edge="1" parent="1" source="Y2F9k9ScdIRFFcySQNbA-50" target="Y2F9k9ScdIRFFcySQNbA-96">
          <mxGeometry relative="1" as="geometry" />
        </mxCell>
        <mxCell id="Y2F9k9ScdIRFFcySQNbA-50" value="&lt;b&gt;&lt;font style=&quot;font-size: 15px;&quot;&gt;Acceptance&lt;/font&gt;&lt;/b&gt;" style="rounded=0;whiteSpace=wrap;html=1;labelBackgroundColor=none;labelBorderColor=none;sketch=0;fontFamily=Verdana;fontSize=11;fillColor=default;" vertex="1" parent="1">
          <mxGeometry x="406" y="85" width="224" height="35" as="geometry" />
        </mxCell>
        <mxCell id="Y2F9k9ScdIRFFcySQNbA-68" value="" style="edgeStyle=orthogonalEdgeStyle;rounded=0;orthogonalLoop=1;jettySize=auto;html=1;fontFamily=Verdana;fontSize=14;" edge="1" parent="1" source="Y2F9k9ScdIRFFcySQNbA-60" target="Y2F9k9ScdIRFFcySQNbA-67">
          <mxGeometry relative="1" as="geometry" />
        </mxCell>
        <mxCell id="Y2F9k9ScdIRFFcySQNbA-70" value="" style="edgeStyle=orthogonalEdgeStyle;rounded=0;orthogonalLoop=1;jettySize=auto;html=1;fontFamily=Verdana;fontSize=14;" edge="1" parent="1" source="Y2F9k9ScdIRFFcySQNbA-60" target="Y2F9k9ScdIRFFcySQNbA-69">
          <mxGeometry relative="1" as="geometry" />
        </mxCell>
        <mxCell id="Y2F9k9ScdIRFFcySQNbA-71" value="&amp;nbsp;Is the content production-ready?&amp;nbsp;" style="edgeLabel;html=1;align=center;verticalAlign=middle;resizable=0;points=[];fontSize=14;fontFamily=Verdana;labelBorderColor=default;" vertex="1" connectable="0" parent="Y2F9k9ScdIRFFcySQNbA-70">
          <mxGeometry x="-0.1716" y="-3" relative="1" as="geometry">
            <mxPoint as="offset" />
          </mxGeometry>
        </mxCell>
        <mxCell id="Y2F9k9ScdIRFFcySQNbA-60" value="&amp;nbsp;Joint team&amp;nbsp;" style="verticalLabelPosition=bottom;sketch=0;html=1;fillColor=#282828;strokeColor=none;verticalAlign=top;pointerEvents=1;align=center;shape=mxgraph.cisco_safe.people_places_things_icons.icon2;labelBackgroundColor=none;labelBorderColor=default;fontFamily=Verdana;fontSize=14;" vertex="1" parent="1">
          <mxGeometry x="484" y="320" width="50" height="41" as="geometry" />
        </mxCell>
        <mxCell id="Y2F9k9ScdIRFFcySQNbA-90" value="&amp;nbsp;Content improvement request&amp;nbsp;" style="edgeStyle=orthogonalEdgeStyle;rounded=0;orthogonalLoop=1;jettySize=auto;html=1;labelBorderColor=default;fontFamily=Verdana;fontSize=15;fontColor=default;entryX=0.5;entryY=0;entryDx=0;entryDy=0;" edge="1" parent="1" source="Y2F9k9ScdIRFFcySQNbA-67" target="Y2F9k9ScdIRFFcySQNbA-93">
          <mxGeometry relative="1" as="geometry">
            <mxPoint x="370" y="580" as="targetPoint" />
          </mxGeometry>
        </mxCell>
        <mxCell id="Y2F9k9ScdIRFFcySQNbA-67" value="NO" style="rhombus;whiteSpace=wrap;html=1;fontSize=14;fontFamily=Verdana;verticalAlign=middle;fillColor=#bac8d3;strokeColor=#23445d;sketch=0;labelBackgroundColor=none;labelBorderColor=none;fontColor=default;labelPosition=center;verticalLabelPosition=middle;align=center;" vertex="1" parent="1">
          <mxGeometry x="610" y="480" width="80" height="80" as="geometry" />
        </mxCell>
        <mxCell id="Y2F9k9ScdIRFFcySQNbA-95" style="edgeStyle=orthogonalEdgeStyle;rounded=0;orthogonalLoop=1;jettySize=auto;html=1;labelBorderColor=default;fontFamily=Verdana;fontSize=15;fontColor=default;entryX=0.532;entryY=1;entryDx=0;entryDy=0;entryPerimeter=0;" edge="1" parent="1">
          <mxGeometry relative="1" as="geometry">
            <mxPoint x="1119.0080000000007" y="436" as="targetPoint" />
            <mxPoint x="830" y="520" as="sourcePoint" />
          </mxGeometry>
        </mxCell>
        <mxCell id="Y2F9k9ScdIRFFcySQNbA-109" value="&amp;nbsp;Move to content repository" style="edgeLabel;html=1;align=center;verticalAlign=middle;resizable=0;points=[];fontSize=15;fontFamily=Verdana;fontColor=default;labelBorderColor=default;" vertex="1" connectable="0" parent="Y2F9k9ScdIRFFcySQNbA-95">
          <mxGeometry x="-0.2683" y="1" relative="1" as="geometry">
            <mxPoint as="offset" />
          </mxGeometry>
        </mxCell>
        <mxCell id="Y2F9k9ScdIRFFcySQNbA-69" value="YES" style="rhombus;whiteSpace=wrap;html=1;fontSize=14;fontFamily=Verdana;verticalAlign=middle;fillColor=#bac8d3;strokeColor=#23445d;sketch=0;labelBackgroundColor=none;labelBorderColor=none;labelPosition=center;verticalLabelPosition=middle;align=center;" vertex="1" parent="1">
          <mxGeometry x="750" y="480" width="80" height="80" as="geometry" />
        </mxCell>
        <mxCell id="Y2F9k9ScdIRFFcySQNbA-102" value="&amp;nbsp;Content development" style="edgeStyle=orthogonalEdgeStyle;rounded=0;orthogonalLoop=1;jettySize=auto;html=1;labelBorderColor=default;fontFamily=Verdana;fontSize=15;fontColor=default;" edge="1" parent="1" source="Y2F9k9ScdIRFFcySQNbA-74">
          <mxGeometry relative="1" as="geometry">
            <mxPoint x="225" y="400" as="targetPoint" />
            <Array as="points">
              <mxPoint x="225" y="400" />
            </Array>
          </mxGeometry>
        </mxCell>
        <mxCell id="Y2F9k9ScdIRFFcySQNbA-74" value="" style="verticalLabelPosition=bottom;sketch=0;html=1;fillColor=#282828;strokeColor=none;verticalAlign=top;pointerEvents=1;align=center;shape=mxgraph.cisco_safe.people_places_things_icons.icon2;labelBackgroundColor=none;labelBorderColor=default;fontFamily=Verdana;fontSize=14;" vertex="1" parent="1">
          <mxGeometry x="200" y="490" width="50" height="41" as="geometry" />
        </mxCell>
        <mxCell id="Y2F9k9ScdIRFFcySQNbA-82" value="" style="rounded=0;whiteSpace=wrap;html=1;labelBackgroundColor=none;labelBorderColor=none;sketch=0;fontFamily=Verdana;fontSize=15;strokeColor=#0e8088;fillColor=#b0e3e6;" vertex="1" parent="1">
          <mxGeometry x="1410" y="1150" width="197" height="86" as="geometry" />
        </mxCell>
        <mxCell id="Y2F9k9ScdIRFFcySQNbA-94" value="prodigy-v1-prod" style="aspect=fixed;html=1;points=[];align=left;image;fontSize=15;image=img/lib/azure2/security/Key_Vaults.svg;fontFamily=Verdana;fillColor=#D1E1FC;labelPosition=right;verticalLabelPosition=middle;verticalAlign=middle;fontStyle=1;labelBackgroundColor=none;" vertex="1" parent="1">
          <mxGeometry x="761.5" y="33" width="57" height="57" as="geometry" />
        </mxCell>
        <mxCell id="Y2F9k9ScdIRFFcySQNbA-96" value="&lt;b&gt;&lt;font style=&quot;font-size: 15px;&quot;&gt;Production&lt;/font&gt;&lt;/b&gt;" style="rounded=0;whiteSpace=wrap;html=1;labelBackgroundColor=none;labelBorderColor=none;sketch=0;fontFamily=Verdana;fontSize=11;fillColor=default;" vertex="1" parent="1">
          <mxGeometry x="800" y="85" width="210" height="35" as="geometry" />
        </mxCell>
        <mxCell id="Y2F9k9ScdIRFFcySQNbA-98" value="" style="rounded=0;whiteSpace=wrap;html=1;labelBackgroundColor=none;labelBorderColor=none;sketch=0;fontFamily=Verdana;fontSize=15;strokeWidth=0;" vertex="1" parent="1">
          <mxGeometry x="1069" y="346" width="94" height="90" as="geometry" />
        </mxCell>
        <mxCell id="Y2F9k9ScdIRFFcySQNbA-99" value="Azure DevOps" style="aspect=fixed;html=1;points=[];align=center;image;fontSize=12;image=img/lib/azure2/devops/Azure_DevOps.svg;labelBackgroundColor=none;labelBorderColor=none;sketch=0;fontFamily=Verdana;fontColor=default;strokeColor=default;strokeWidth=0;fillColor=#3399FF;labelPosition=center;verticalLabelPosition=top;verticalAlign=bottom;" vertex="1" parent="1">
          <mxGeometry x="2760" y="1150" width="64" height="64" as="geometry" />
        </mxCell>
        <mxCell id="Y2F9k9ScdIRFFcySQNbA-101" value="&amp;nbsp;SOC Engineers&amp;nbsp;" style="edgeStyle=orthogonalEdgeStyle;rounded=0;orthogonalLoop=1;jettySize=auto;html=1;labelBorderColor=default;fontFamily=Verdana;fontSize=15;fontColor=default;exitX=0;exitY=0.5;exitDx=0;exitDy=0;" edge="1" parent="1" source="Y2F9k9ScdIRFFcySQNbA-93" target="Y2F9k9ScdIRFFcySQNbA-74">
          <mxGeometry x="0.7352" relative="1" as="geometry">
            <mxPoint x="310" y="649" as="sourcePoint" />
            <mxPoint as="offset" />
          </mxGeometry>
        </mxCell>
        <mxCell id="Y2F9k9ScdIRFFcySQNbA-100" value="Jira" style="image;image=img/lib/atlassian/Jira_Software_Logo.svg;labelBackgroundColor=none;labelBorderColor=none;sketch=0;fontFamily=Verdana;fontSize=15;fontColor=default;strokeColor=default;strokeWidth=0;fillColor=#3399FF;labelPosition=center;verticalLabelPosition=top;align=center;verticalAlign=bottom;" vertex="1" parent="1">
          <mxGeometry x="326" y="611" width="74" height="76" as="geometry" />
        </mxCell>
        <mxCell id="Y2F9k9ScdIRFFcySQNbA-114" style="edgeStyle=orthogonalEdgeStyle;rounded=0;orthogonalLoop=1;jettySize=auto;html=1;labelBorderColor=default;fontFamily=Verdana;fontSize=13;fontColor=default;" edge="1" parent="1" source="Y2F9k9ScdIRFFcySQNbA-103" target="Y2F9k9ScdIRFFcySQNbA-110">
          <mxGeometry relative="1" as="geometry">
            <Array as="points">
              <mxPoint x="1040" y="390" />
              <mxPoint x="1040" y="390" />
            </Array>
          </mxGeometry>
        </mxCell>
        <mxCell id="Y2F9k9ScdIRFFcySQNbA-103" value="Azure DevOps" style="aspect=fixed;html=1;points=[];align=center;image;fontSize=13;image=img/lib/azure2/devops/Azure_DevOps.svg;labelBackgroundColor=none;labelBorderColor=none;sketch=0;fontFamily=Verdana;fontColor=default;strokeColor=default;strokeWidth=0;fillColor=#3399FF;labelPosition=center;verticalLabelPosition=top;verticalAlign=bottom;" vertex="1" parent="1">
          <mxGeometry x="1084.5" y="368" width="64" height="64" as="geometry" />
        </mxCell>
        <mxCell id="Y2F9k9ScdIRFFcySQNbA-105" value="" style="rounded=0;whiteSpace=wrap;html=1;labelBackgroundColor=none;labelBorderColor=none;sketch=0;fontFamily=Verdana;fontSize=11;fillColor=#bac8d3;strokeColor=none;" vertex="1" parent="1">
          <mxGeometry x="830" y="177.25" width="150" height="132.75" as="geometry" />
        </mxCell>
        <mxCell id="Y2F9k9ScdIRFFcySQNbA-116" style="edgeStyle=orthogonalEdgeStyle;rounded=0;orthogonalLoop=1;jettySize=auto;html=1;labelBorderColor=default;fontFamily=Verdana;fontSize=13;fontColor=default;" edge="1" parent="1" source="Y2F9k9ScdIRFFcySQNbA-106" target="Y2F9k9ScdIRFFcySQNbA-112">
          <mxGeometry relative="1" as="geometry" />
        </mxCell>
        <mxCell id="Y2F9k9ScdIRFFcySQNbA-106" value="SIEM/SOAR Content" style="rounded=0;whiteSpace=wrap;html=1;labelBackgroundColor=none;labelBorderColor=none;sketch=0;fontFamily=Verdana;fontSize=11;fillColor=default;" vertex="1" parent="1">
          <mxGeometry x="838.5" y="189" width="130" height="31" as="geometry" />
        </mxCell>
        <mxCell id="Y2F9k9ScdIRFFcySQNbA-122" style="edgeStyle=orthogonalEdgeStyle;rounded=0;orthogonalLoop=1;jettySize=auto;html=1;entryX=1;entryY=0.5;entryDx=0;entryDy=0;labelBorderColor=default;fontFamily=Verdana;fontSize=13;fontColor=default;" edge="1" parent="1" source="Y2F9k9ScdIRFFcySQNbA-110" target="Y2F9k9ScdIRFFcySQNbA-106">
          <mxGeometry relative="1" as="geometry" />
        </mxCell>
        <mxCell id="Y2F9k9ScdIRFFcySQNbA-123" value="Content delivery" style="edgeLabel;html=1;align=center;verticalAlign=middle;resizable=0;points=[];fontSize=13;fontFamily=Verdana;fontColor=default;labelBorderColor=default;" vertex="1" connectable="0" parent="Y2F9k9ScdIRFFcySQNbA-122">
          <mxGeometry x="-0.5333" y="2" relative="1" as="geometry">
            <mxPoint x="2" y="19" as="offset" />
          </mxGeometry>
        </mxCell>
        <mxCell id="Y2F9k9ScdIRFFcySQNbA-110" value="CI/CD pipeline" style="sketch=0;outlineConnect=0;fontColor=#232F3E;gradientColor=none;fillColor=#000000;strokeColor=none;dashed=0;verticalLabelPosition=bottom;verticalAlign=top;align=center;html=1;fontSize=12;fontStyle=0;aspect=fixed;pointerEvents=1;shape=mxgraph.aws4.iot_analytics_pipeline;labelBackgroundColor=none;labelBorderColor=none;fontFamily=Verdana;" vertex="1" parent="1">
          <mxGeometry x="950" y="369" width="78" height="42" as="geometry" />
        </mxCell>
        <mxCell id="Y2F9k9ScdIRFFcySQNbA-112" value="NO DATA" style="shape=cylinder3;whiteSpace=wrap;html=1;boundedLbl=1;backgroundOutline=1;size=15;labelBackgroundColor=none;labelBorderColor=none;sketch=0;fontFamily=Verdana;fontSize=13;fontColor=default;strokeColor=default;strokeWidth=1;fillColor=default;" vertex="1" parent="1">
          <mxGeometry x="838.5" y="245" width="130" height="57" as="geometry" />
        </mxCell>
        <mxCell id="Y2F9k9ScdIRFFcySQNbA-113" value="rg-prodigy-sentinel-prod" style="aspect=fixed;html=1;points=[];align=left;image;fontSize=12;image=img/lib/azure2/general/Resource_Groups.svg;fontFamily=Verdana;fillColor=#D1E1FC;labelPosition=right;verticalLabelPosition=middle;verticalAlign=middle;sketch=0;labelBorderColor=none;labelBackgroundColor=none;fontStyle=1" vertex="1" parent="1">
          <mxGeometry x="784" y="129" width="28" height="26.35" as="geometry" />
        </mxCell>
        <mxCell id="Y2F9k9ScdIRFFcySQNbA-104" value="log-prodigy-sentinel-prod" style="aspect=fixed;html=1;points=[];align=left;image;fontSize=9;image=img/lib/azure2/security/Azure_Sentinel.svg;labelBackgroundColor=none;labelBorderColor=none;sketch=0;fontFamily=Verdana;fillColor=default;labelPosition=right;verticalLabelPosition=middle;verticalAlign=middle;fontStyle=1" vertex="1" parent="1">
          <mxGeometry x="818.5" y="156.35" width="23" height="27.93" as="geometry" />
        </mxCell>
        <mxCell id="Y2F9k9ScdIRFFcySQNbA-213" style="edgeStyle=orthogonalEdgeStyle;rounded=0;orthogonalLoop=1;jettySize=auto;html=1;entryX=0;entryY=0.25;entryDx=0;entryDy=0;labelBorderColor=default;fontFamily=Verdana;fontSize=15;fontColor=default;endArrow=none;endFill=0;" edge="1" parent="1">
          <mxGeometry relative="1" as="geometry">
            <mxPoint x="1348.0000000000005" y="200" as="sourcePoint" />
            <mxPoint x="1512.9999999999995" y="5" as="targetPoint" />
            <Array as="points">
              <mxPoint x="1430" y="200" />
              <mxPoint x="1430" y="5" />
            </Array>
          </mxGeometry>
        </mxCell>
        <mxCell id="Y2F9k9ScdIRFFcySQNbA-126" value="Azure lighthouse&amp;nbsp;" style="aspect=fixed;html=1;points=[];align=center;image;fontSize=12;image=img/lib/azure2/management_governance/Azure_Lighthouse.svg;labelBackgroundColor=none;labelBorderColor=default;sketch=0;fontFamily=Verdana;fontColor=default;strokeColor=default;strokeWidth=1;fillColor=default;" vertex="1" parent="1">
          <mxGeometry x="1270" y="123.59" width="92.32" height="106.41" as="geometry" />
        </mxCell>
        <mxCell id="Y2F9k9ScdIRFFcySQNbA-144" value="" style="edgeStyle=orthogonalEdgeStyle;rounded=0;orthogonalLoop=1;jettySize=auto;html=1;labelBorderColor=default;fontFamily=Verdana;fontSize=13;fontColor=default;" edge="1" parent="1" source="Y2F9k9ScdIRFFcySQNbA-136" target="Y2F9k9ScdIRFFcySQNbA-143">
          <mxGeometry relative="1" as="geometry" />
        </mxCell>
        <mxCell id="Y2F9k9ScdIRFFcySQNbA-221" style="edgeStyle=orthogonalEdgeStyle;rounded=0;orthogonalLoop=1;jettySize=auto;html=1;entryX=1;entryY=0;entryDx=0;entryDy=0;labelBorderColor=default;fontFamily=Verdana;fontSize=24;fontColor=default;endArrow=classic;endFill=1;" edge="1" parent="1" source="Y2F9k9ScdIRFFcySQNbA-143" target="Y2F9k9ScdIRFFcySQNbA-72">
          <mxGeometry relative="1" as="geometry" />
        </mxCell>
        <mxCell id="Y2F9k9ScdIRFFcySQNbA-143" value="24/7 Security Operations" style="whiteSpace=wrap;html=1;fontSize=14;fontFamily=Verdana;verticalAlign=middle;fillColor=#b0e3e6;strokeColor=#0e8088;sketch=0;labelBackgroundColor=none;labelBorderColor=none;labelPosition=center;verticalLabelPosition=middle;align=center;fontStyle=1" vertex="1" parent="1">
          <mxGeometry x="837" y="-36.28" width="213" height="60.5" as="geometry" />
        </mxCell>
        <mxCell id="Y2F9k9ScdIRFFcySQNbA-136" value="&amp;nbsp;SOC Analysts&amp;nbsp;" style="verticalLabelPosition=bottom;sketch=0;html=1;fillColor=#282828;strokeColor=none;verticalAlign=top;pointerEvents=1;align=center;shape=mxgraph.cisco_safe.people_places_things_icons.icon2;labelBackgroundColor=default;labelBorderColor=default;fontFamily=Verdana;fontSize=14;gradientColor=none;" vertex="1" parent="1">
          <mxGeometry x="690" y="-26.53" width="50" height="41" as="geometry" />
        </mxCell>
        <mxCell id="Y2F9k9ScdIRFFcySQNbA-153" value="customer 1 subscription" style="aspect=fixed;html=1;points=[];align=left;image;fontSize=15;image=img/lib/azure2/security/Key_Vaults.svg;fontFamily=Verdana;fillColor=#D1E1FC;labelPosition=right;verticalLabelPosition=middle;verticalAlign=middle;fontStyle=1" vertex="1" parent="1">
          <mxGeometry x="1445" y="-117" width="60" height="60" as="geometry" />
        </mxCell>
        <mxCell id="Y2F9k9ScdIRFFcySQNbA-158" style="edgeStyle=orthogonalEdgeStyle;rounded=0;orthogonalLoop=1;jettySize=auto;html=1;entryX=1;entryY=0;entryDx=0;entryDy=35.25;entryPerimeter=0;labelBorderColor=default;fontFamily=Verdana;fontSize=15;fontColor=default;" edge="1" parent="1" source="Y2F9k9ScdIRFFcySQNbA-156" target="Y2F9k9ScdIRFFcySQNbA-157">
          <mxGeometry relative="1" as="geometry" />
        </mxCell>
        <mxCell id="Y2F9k9ScdIRFFcySQNbA-172" value="&amp;nbsp;Data flow&amp;nbsp;" style="edgeLabel;html=1;align=center;verticalAlign=middle;resizable=0;points=[];fontSize=10;fontFamily=Verdana;fontColor=default;labelBorderColor=default;" vertex="1" connectable="0" parent="Y2F9k9ScdIRFFcySQNbA-158">
          <mxGeometry x="0.5822" y="4" relative="1" as="geometry">
            <mxPoint x="15" y="-27" as="offset" />
          </mxGeometry>
        </mxCell>
        <mxCell id="Y2F9k9ScdIRFFcySQNbA-156" value="customer 1 infrastructure" style="sketch=0;pointerEvents=1;shadow=0;dashed=0;html=1;strokeColor=none;fillColor=#505050;labelPosition=center;verticalLabelPosition=bottom;verticalAlign=top;outlineConnect=0;align=center;shape=mxgraph.office.servers.datacenter;labelBackgroundColor=none;labelBorderColor=none;fontFamily=Verdana;fontSize=15;fontColor=default;" vertex="1" parent="1">
          <mxGeometry x="1845" y="-43" width="70" height="53" as="geometry" />
        </mxCell>
        <mxCell id="Y2F9k9ScdIRFFcySQNbA-157" value="customer 1 data" style="shape=cylinder3;whiteSpace=wrap;html=1;boundedLbl=1;backgroundOutline=1;size=15;labelBackgroundColor=none;labelBorderColor=none;sketch=0;fontFamily=Verdana;fontSize=13;fontColor=default;strokeColor=default;strokeWidth=1;fillColor=default;" vertex="1" parent="1">
          <mxGeometry x="1556.18" y="90" width="130" height="57" as="geometry" />
        </mxCell>
        <mxCell id="Y2F9k9ScdIRFFcySQNbA-171" style="edgeStyle=orthogonalEdgeStyle;rounded=0;orthogonalLoop=1;jettySize=auto;html=1;labelBorderColor=default;fontFamily=Verdana;fontSize=10;fontColor=default;endArrow=none;endFill=0;" edge="1" parent="1" source="Y2F9k9ScdIRFFcySQNbA-166">
          <mxGeometry relative="1" as="geometry">
            <mxPoint x="1764.9999999999995" y="88.75" as="targetPoint" />
          </mxGeometry>
        </mxCell>
        <mxCell id="Y2F9k9ScdIRFFcySQNbA-166" value="customer 1 security tools" style="shape=image;verticalLabelPosition=bottom;labelBackgroundColor=none;verticalAlign=top;aspect=fixed;imageAspect=0;image=https://cdn-icons-png.flaticon.com/512/179/179627.png;fontFamily=Verdana;fontSize=15;" vertex="1" parent="1">
          <mxGeometry x="1839.75" y="48.5" width="80.5" height="80.5" as="geometry" />
        </mxCell>
        <mxCell id="Y2F9k9ScdIRFFcySQNbA-170" style="edgeStyle=orthogonalEdgeStyle;rounded=0;orthogonalLoop=1;jettySize=auto;html=1;entryX=0.5;entryY=0;entryDx=0;entryDy=0;entryPerimeter=0;labelBorderColor=default;fontFamily=Verdana;fontSize=10;fontColor=default;endArrow=none;endFill=0;" edge="1" parent="1" source="Y2F9k9ScdIRFFcySQNbA-169" target="Y2F9k9ScdIRFFcySQNbA-157">
          <mxGeometry relative="1" as="geometry" />
        </mxCell>
        <mxCell id="Y2F9k9ScdIRFFcySQNbA-169" value="customer 1 SOAR/SIEM content" style="rounded=0;whiteSpace=wrap;html=1;labelBackgroundColor=none;labelBorderColor=none;sketch=0;fontFamily=Verdana;fontSize=11;fillColor=default;" vertex="1" parent="1">
          <mxGeometry x="1521.18" y="17.5" width="200" height="31" as="geometry" />
        </mxCell>
        <mxCell id="Y2F9k9ScdIRFFcySQNbA-161" value="customer 1 sentinel" style="aspect=fixed;html=1;points=[];align=left;image;fontSize=10;image=img/lib/azure2/security/Azure_Sentinel.svg;labelBackgroundColor=none;labelBorderColor=none;sketch=0;fontFamily=Verdana;fillColor=default;labelPosition=right;verticalLabelPosition=middle;verticalAlign=middle;fontStyle=1" vertex="1" parent="1">
          <mxGeometry x="1521.18" y="-8.999999999999972" width="27.36" height="33.22" as="geometry" />
        </mxCell>
        <mxCell id="Y2F9k9ScdIRFFcySQNbA-174" value="" style="rounded=0;whiteSpace=wrap;html=1;labelPosition=center;verticalLabelPosition=top;align=center;verticalAlign=bottom;fillColor=#dae8fc;strokeColor=#6c8ebf;fontStyle=1" vertex="1" parent="1">
          <mxGeometry x="1495" y="247" width="520" height="260" as="geometry" />
        </mxCell>
        <mxCell id="Y2F9k9ScdIRFFcySQNbA-175" value="" style="rounded=0;whiteSpace=wrap;html=1;fontFamily=Verdana;fillColor=#bac8d3;strokeColor=none;" vertex="1" parent="1">
          <mxGeometry x="1515" y="267" width="480" height="220" as="geometry" />
        </mxCell>
        <mxCell id="Y2F9k9ScdIRFFcySQNbA-176" value="customer 2 subscription" style="aspect=fixed;html=1;points=[];align=left;image;fontSize=15;image=img/lib/azure2/security/Key_Vaults.svg;fontFamily=Verdana;fillColor=#D1E1FC;labelPosition=right;verticalLabelPosition=middle;verticalAlign=middle;fontStyle=1" vertex="1" parent="1">
          <mxGeometry x="1445" y="200" width="60" height="60" as="geometry" />
        </mxCell>
        <mxCell id="Y2F9k9ScdIRFFcySQNbA-177" style="edgeStyle=orthogonalEdgeStyle;rounded=0;orthogonalLoop=1;jettySize=auto;html=1;entryX=1;entryY=0;entryDx=0;entryDy=35.25;entryPerimeter=0;labelBorderColor=default;fontFamily=Verdana;fontSize=15;fontColor=default;" edge="1" parent="1" source="Y2F9k9ScdIRFFcySQNbA-179" target="Y2F9k9ScdIRFFcySQNbA-180">
          <mxGeometry relative="1" as="geometry" />
        </mxCell>
        <mxCell id="Y2F9k9ScdIRFFcySQNbA-178" value="&amp;nbsp;Data flow&amp;nbsp;" style="edgeLabel;html=1;align=center;verticalAlign=middle;resizable=0;points=[];fontSize=10;fontFamily=Verdana;fontColor=default;labelBorderColor=default;" vertex="1" connectable="0" parent="Y2F9k9ScdIRFFcySQNbA-177">
          <mxGeometry x="0.5822" y="4" relative="1" as="geometry">
            <mxPoint x="15" y="-27" as="offset" />
          </mxGeometry>
        </mxCell>
        <mxCell id="Y2F9k9ScdIRFFcySQNbA-179" value="customer 2 infrastructure" style="sketch=0;pointerEvents=1;shadow=0;dashed=0;html=1;strokeColor=none;fillColor=#505050;labelPosition=center;verticalLabelPosition=bottom;verticalAlign=top;outlineConnect=0;align=center;shape=mxgraph.office.servers.datacenter;labelBackgroundColor=none;labelBorderColor=none;fontFamily=Verdana;fontSize=15;fontColor=default;" vertex="1" parent="1">
          <mxGeometry x="1845" y="274" width="70" height="53" as="geometry" />
        </mxCell>
        <mxCell id="Y2F9k9ScdIRFFcySQNbA-180" value="customer 2 data" style="shape=cylinder3;whiteSpace=wrap;html=1;boundedLbl=1;backgroundOutline=1;size=15;labelBackgroundColor=none;labelBorderColor=none;sketch=0;fontFamily=Verdana;fontSize=13;fontColor=default;strokeColor=default;strokeWidth=1;fillColor=default;" vertex="1" parent="1">
          <mxGeometry x="1556.18" y="407" width="130" height="57" as="geometry" />
        </mxCell>
        <mxCell id="Y2F9k9ScdIRFFcySQNbA-181" style="edgeStyle=orthogonalEdgeStyle;rounded=0;orthogonalLoop=1;jettySize=auto;html=1;labelBorderColor=default;fontFamily=Verdana;fontSize=10;fontColor=default;endArrow=none;endFill=0;" edge="1" parent="1" source="Y2F9k9ScdIRFFcySQNbA-182">
          <mxGeometry relative="1" as="geometry">
            <mxPoint x="1764.9999999999995" y="405.75" as="targetPoint" />
          </mxGeometry>
        </mxCell>
        <mxCell id="Y2F9k9ScdIRFFcySQNbA-182" value="customer 2 security tools" style="shape=image;verticalLabelPosition=bottom;labelBackgroundColor=none;verticalAlign=top;aspect=fixed;imageAspect=0;image=https://cdn-icons-png.flaticon.com/512/179/179627.png;fontFamily=Verdana;fontSize=15;" vertex="1" parent="1">
          <mxGeometry x="1839.75" y="365.5" width="80.5" height="80.5" as="geometry" />
        </mxCell>
        <mxCell id="Y2F9k9ScdIRFFcySQNbA-183" style="edgeStyle=orthogonalEdgeStyle;rounded=0;orthogonalLoop=1;jettySize=auto;html=1;entryX=0.5;entryY=0;entryDx=0;entryDy=0;entryPerimeter=0;labelBorderColor=default;fontFamily=Verdana;fontSize=10;fontColor=default;endArrow=none;endFill=0;" edge="1" parent="1" source="Y2F9k9ScdIRFFcySQNbA-184" target="Y2F9k9ScdIRFFcySQNbA-180">
          <mxGeometry relative="1" as="geometry" />
        </mxCell>
        <mxCell id="Y2F9k9ScdIRFFcySQNbA-184" value="customer 2 SOAR/SIEM content" style="rounded=0;whiteSpace=wrap;html=1;labelBackgroundColor=none;labelBorderColor=none;sketch=0;fontFamily=Verdana;fontSize=11;fillColor=default;" vertex="1" parent="1">
          <mxGeometry x="1521.18" y="334.5" width="200" height="31" as="geometry" />
        </mxCell>
        <mxCell id="Y2F9k9ScdIRFFcySQNbA-185" value="customer 2 sentinel" style="aspect=fixed;html=1;points=[];align=left;image;fontSize=10;image=img/lib/azure2/security/Azure_Sentinel.svg;labelBackgroundColor=none;labelBorderColor=none;sketch=0;fontFamily=Verdana;fillColor=default;labelPosition=right;verticalLabelPosition=middle;verticalAlign=middle;fontStyle=1" vertex="1" parent="1">
          <mxGeometry x="1521.18" y="308" width="27.36" height="33.22" as="geometry" />
        </mxCell>
        <mxCell id="Y2F9k9ScdIRFFcySQNbA-225" style="edgeStyle=orthogonalEdgeStyle;rounded=0;orthogonalLoop=1;jettySize=auto;html=1;entryX=-0.031;entryY=0.547;entryDx=0;entryDy=0;entryPerimeter=0;labelBorderColor=default;fontFamily=Verdana;fontSize=24;fontColor=default;endArrow=classic;endFill=1;" edge="1" parent="1" source="Y2F9k9ScdIRFFcySQNbA-126" target="Y2F9k9ScdIRFFcySQNbA-185">
          <mxGeometry relative="1" as="geometry">
            <Array as="points">
              <mxPoint x="1430" y="200" />
              <mxPoint x="1430" y="326" />
            </Array>
          </mxGeometry>
        </mxCell>
      </root>
    </mxGraphModel>
  </diagram>
</mxfile>
